<svg width="241" height="78" viewBox="0 0 241 78" fill="none" xmlns="http://www.w3.org/2000/svg">
<path d="M230.85 66.585C230.75 65.785 230.81 65.085 231.03 64.485C231.27 63.885 231.6 63.345 232.02 62.865C232.46 62.385 232.94 61.945 233.46 61.545C234 61.145 234.5 60.755 234.96 60.375C235.44 59.995 235.83 59.605 236.13 59.205C236.43 58.805 236.58 58.365 236.58 57.885C236.58 57.285 236.43 56.775 236.13 56.355C235.83 55.935 235.39 55.615 234.81 55.395C234.25 55.175 233.57 55.065 232.77 55.065C231.85 55.065 231.01 55.265 230.25 55.665C229.49 56.065 228.74 56.655 228 57.435L225.54 55.155C226.5 54.055 227.63 53.175 228.93 52.515C230.25 51.835 231.7 51.495 233.28 51.495C234.74 51.495 236.03 51.715 237.15 52.155C238.29 52.595 239.18 53.265 239.82 54.165C240.48 55.045 240.81 56.155 240.81 57.495C240.81 58.235 240.65 58.885 240.33 59.445C240.03 59.985 239.63 60.475 239.13 60.915C238.65 61.335 238.14 61.745 237.6 62.145C237.06 62.525 236.56 62.925 236.1 63.345C235.64 63.765 235.28 64.235 235.02 64.755C234.76 65.275 234.66 65.885 234.72 66.585H230.85ZM232.8 74.565C232.04 74.565 231.41 74.315 230.91 73.815C230.41 73.315 230.16 72.685 230.16 71.925C230.16 71.145 230.41 70.505 230.91 70.005C231.41 69.505 232.04 69.255 232.8 69.255C233.56 69.255 234.19 69.505 234.69 70.005C235.19 70.505 235.44 71.145 235.44 71.925C235.44 72.685 235.19 73.315 234.69 73.815C234.19 74.315 233.56 74.565 232.8 74.565Z" fill="#B65A0F"/>
<path d="M195.57 48.645L199.26 49.755C198.6 51.275 197.8 52.765 196.86 54.225C195.94 55.685 194.94 57.045 193.86 58.305C192.78 59.545 191.7 60.615 190.62 61.515C190.4 61.275 190.11 60.985 189.75 60.645C189.41 60.305 189.05 59.965 188.67 59.625C188.29 59.265 187.96 58.995 187.68 58.815C188.76 58.015 189.8 57.085 190.8 56.025C191.8 54.965 192.7 53.805 193.5 52.545C194.32 51.265 195.01 49.965 195.57 48.645ZM195.48 52.725H211.35V56.115H193.77L195.48 52.725ZM210 52.725H213.66C213.66 52.725 213.66 52.825 213.66 53.025C213.66 53.205 213.66 53.415 213.66 53.655C213.66 53.875 213.65 54.065 213.63 54.225C213.55 56.585 213.47 58.605 213.39 60.285C213.33 61.945 213.24 63.325 213.12 64.425C213.02 65.525 212.9 66.395 212.76 67.035C212.62 67.655 212.44 68.105 212.22 68.385C211.92 68.845 211.59 69.175 211.23 69.375C210.87 69.555 210.47 69.685 210.03 69.765C209.63 69.825 209.12 69.865 208.5 69.885C207.9 69.905 207.25 69.905 206.55 69.885C206.53 69.365 206.43 68.785 206.25 68.145C206.09 67.505 205.87 66.955 205.59 66.495C206.11 66.535 206.58 66.565 207 66.585C207.44 66.605 207.79 66.605 208.05 66.585C208.27 66.605 208.45 66.585 208.59 66.525C208.73 66.445 208.87 66.315 209.01 66.135C209.15 65.955 209.27 65.605 209.37 65.085C209.47 64.545 209.56 63.795 209.64 62.835C209.72 61.855 209.79 60.595 209.85 59.055C209.91 57.495 209.96 55.615 210 53.415V52.725ZM192.6 58.275H196.14V71.025C196.14 71.585 196.22 72.015 196.38 72.315C196.56 72.595 196.91 72.785 197.43 72.885C197.95 72.965 198.73 73.005 199.77 73.005C200.01 73.005 200.37 73.005 200.85 73.005C201.33 73.005 201.88 73.005 202.5 73.005C203.12 73.005 203.77 73.005 204.45 73.005C205.13 73.005 205.79 73.005 206.43 73.005C207.07 73.005 207.64 73.005 208.14 73.005C208.66 73.005 209.06 73.005 209.34 73.005C210.18 73.005 210.81 72.925 211.23 72.765C211.67 72.585 211.98 72.255 212.16 71.775C212.34 71.295 212.49 70.585 212.61 69.645C213.05 69.925 213.61 70.185 214.29 70.425C214.97 70.665 215.56 70.825 216.06 70.905C215.88 72.305 215.57 73.405 215.13 74.205C214.71 75.005 214.07 75.565 213.21 75.885C212.35 76.205 211.15 76.365 209.61 76.365C209.39 76.365 209.02 76.365 208.5 76.365C207.98 76.365 207.38 76.365 206.7 76.365C206.04 76.365 205.35 76.365 204.63 76.365C203.91 76.365 203.21 76.365 202.53 76.365C201.87 76.365 201.29 76.365 200.79 76.365C200.31 76.365 199.96 76.365 199.74 76.365C197.9 76.365 196.46 76.215 195.42 75.915C194.38 75.615 193.65 75.075 193.23 74.295C192.81 73.535 192.6 72.455 192.6 71.055V58.275ZM193.62 58.275H205.38V67.965H193.62V64.785H201.84V61.455H193.62V58.275Z" fill="#B65A0F"/>
<path d="M169.98 50.1151H184.32V52.8451H169.98V50.1151ZM175.29 59.7151H179.01V61.9651H175.29V59.7151ZM175.29 64.2751H179.01V66.5251H175.29V64.2751ZM172.35 68.8351H182.52V71.3851H172.35V68.8351ZM174.48 56.8351H176.46V69.9151H174.48V56.8351ZM177.87 56.8351H179.85V69.9451H177.87V56.8351ZM175.65 51.3151L179.22 51.4651C179.02 52.4051 178.79 53.3351 178.53 54.2551C178.29 55.1751 178.06 55.9651 177.84 56.6251L175.17 56.2951C175.25 55.7951 175.32 55.2551 175.38 54.6751C175.46 54.0951 175.52 53.5151 175.56 52.9351C175.6 52.3351 175.63 51.7951 175.65 51.3151ZM170.52 54.9751H183.99V72.2851H181.26V57.4951H173.16V72.3151H170.52V54.9751ZM157.11 51.1051H169.59V53.6851H157.11V51.1051ZM159.39 64.2751C160.05 66.2951 160.87 67.9151 161.85 69.1351C162.83 70.3551 163.96 71.2851 165.24 71.9251C166.54 72.5451 167.96 72.9651 169.5 73.1851C171.06 73.4051 172.75 73.5151 174.57 73.5151C174.91 73.5151 175.41 73.5151 176.07 73.5151C176.75 73.5151 177.51 73.5151 178.35 73.5151C179.21 73.5151 180.07 73.5151 180.93 73.5151C181.81 73.4951 182.61 73.4851 183.33 73.4851C184.07 73.4851 184.64 73.4751 185.04 73.4551C184.86 73.6951 184.68 74.0051 184.5 74.3851C184.34 74.7651 184.19 75.1551 184.05 75.5551C183.93 75.9551 183.83 76.3051 183.75 76.6051H182.07H174.48C172.34 76.6051 170.38 76.4551 168.6 76.1551C166.82 75.8751 165.2 75.3351 163.74 74.5351C162.3 73.7351 161.03 72.5851 159.93 71.0851C158.83 69.5651 157.91 67.5851 157.17 65.1451L159.39 64.2751ZM161.67 62.3251L164.37 63.0451C163.71 64.7251 162.83 66.3251 161.73 67.8451C160.65 69.3451 159.45 70.5951 158.13 71.5951C158.05 71.3751 157.91 71.1051 157.71 70.7851C157.53 70.4451 157.34 70.1151 157.14 69.7951C156.94 69.4751 156.75 69.2151 156.57 69.0151C157.65 68.2351 158.64 67.2651 159.54 66.1051C160.46 64.9251 161.17 63.6651 161.67 62.3251ZM158.76 54.0151L160.83 54.6151C160.51 55.7151 160.07 56.8151 159.51 57.9151C158.97 59.0151 158.39 59.9551 157.77 60.7351C157.65 60.4951 157.45 60.1651 157.17 59.7451C156.91 59.3051 156.67 58.9751 156.45 58.7551C156.95 58.1351 157.4 57.4051 157.8 56.5651C158.2 55.7251 158.52 54.8751 158.76 54.0151ZM161.91 64.4251H166.98V66.9751H160.62L161.91 64.4251ZM166.11 64.4251H166.74L167.25 64.3351L169.08 65.2051C168.48 67.2451 167.64 69.0451 166.56 70.6051C165.5 72.1451 164.26 73.4451 162.84 74.5051C161.42 75.5851 159.88 76.4451 158.22 77.0851C158.12 76.8451 157.96 76.5651 157.74 76.2451C157.54 75.9251 157.32 75.6051 157.08 75.2851C156.86 74.9851 156.65 74.7551 156.45 74.5951C157.99 74.0551 159.41 73.3451 160.71 72.4651C162.01 71.5851 163.12 70.5151 164.04 69.2551C164.98 67.9951 165.67 66.5551 166.11 64.9351V64.4251ZM162.06 48.8251H165.06V60.2551H162.06V48.8251ZM158.55 57.1351L159.87 55.7251C160.27 56.0651 160.67 56.4551 161.07 56.8951C161.47 57.3151 161.78 57.6751 162 57.9751L160.62 59.5651C160.4 59.2451 160.09 58.8551 159.69 58.3951C159.29 57.9351 158.91 57.5151 158.55 57.1351ZM166.8 53.9551L168.81 54.4651C168.59 55.3051 168.29 56.1651 167.91 57.0451C167.53 57.9251 167.14 58.6751 166.74 59.2951C166.56 59.1351 166.29 58.9451 165.93 58.7251C165.57 58.4851 165.27 58.3051 165.03 58.1851C165.41 57.5851 165.75 56.9151 166.05 56.1751C166.35 55.4351 166.6 54.6951 166.8 53.9551ZM166.71 57.2251L168.09 55.8151C168.49 56.1551 168.9 56.5351 169.32 56.9551C169.74 57.3751 170.06 57.7251 170.28 58.0051L168.81 59.6251C168.59 59.2851 168.28 58.8951 167.88 58.4551C167.48 57.9951 167.09 57.5851 166.71 57.2251ZM162.39 58.5451L164.67 59.4751C164.19 60.0751 163.59 60.6851 162.87 61.3051C162.15 61.9051 161.39 62.4651 160.59 62.9851C159.79 63.4851 159 63.8951 158.22 64.2151C158 63.8751 157.7 63.4851 157.32 63.0451C156.94 62.6051 156.6 62.2451 156.3 61.9651C157.04 61.7451 157.79 61.4551 158.55 61.0951C159.33 60.7351 160.06 60.3351 160.74 59.8951C161.42 59.4551 161.97 59.0051 162.39 58.5451ZM164.88 58.5151C165.14 58.6351 165.51 58.8251 165.99 59.0851C166.47 59.3451 166.98 59.6351 167.52 59.9551C168.06 60.2551 168.56 60.5351 169.02 60.7951C169.48 61.0551 169.82 61.2451 170.04 61.3651L168.48 63.7951C168.18 63.5351 167.8 63.2351 167.34 62.8951C166.88 62.5551 166.4 62.2051 165.9 61.8451C165.4 61.4851 164.92 61.1551 164.46 60.8551C164 60.5351 163.6 60.2751 163.26 60.0751L164.88 58.5151Z" fill="#B65A0F"/>
<path d="M133.62 64.665L136.53 63.705C136.91 64.645 137.3 65.665 137.7 66.765C138.1 67.865 138.45 68.925 138.75 69.945C139.07 70.965 139.3 71.875 139.44 72.675L136.29 73.845C136.17 73.065 135.97 72.155 135.69 71.115C135.41 70.055 135.09 68.965 134.73 67.845C134.37 66.705 134 65.645 133.62 64.665ZM128.79 49.635L132 50.325C131.7 51.865 131.32 53.395 130.86 54.915C130.42 56.415 129.91 57.815 129.33 59.115C128.75 60.415 128.12 61.565 127.44 62.565C127.28 62.345 127.04 62.085 126.72 61.785C126.42 61.485 126.1 61.185 125.76 60.885C125.44 60.565 125.16 60.315 124.92 60.135C125.54 59.295 126.09 58.315 126.57 57.195C127.07 56.075 127.5 54.865 127.86 53.565C128.24 52.265 128.55 50.955 128.79 49.635ZM127.23 74.685C127.17 74.445 127.07 74.125 126.93 73.725C126.81 73.325 126.68 72.905 126.54 72.465C126.4 72.025 126.26 71.655 126.12 71.355C126.44 71.255 126.72 71.015 126.96 70.635C127.2 70.255 127.46 69.725 127.74 69.045C127.88 68.725 128.07 68.215 128.31 67.515C128.57 66.795 128.85 65.945 129.15 64.965C129.45 63.985 129.73 62.935 129.99 61.815C130.27 60.695 130.51 59.575 130.71 58.455L134.19 59.325C133.83 60.905 133.4 62.505 132.9 64.125C132.4 65.725 131.87 67.255 131.31 68.715C130.77 70.175 130.22 71.495 129.66 72.675V72.735C129.66 72.735 129.54 72.805 129.3 72.945C129.06 73.065 128.77 73.235 128.43 73.455C128.11 73.655 127.83 73.865 127.59 74.085C127.35 74.305 127.23 74.505 127.23 74.685ZM127.2 74.685L126.99 71.925L128.43 70.875L137.64 69.195C137.68 69.635 137.76 70.135 137.88 70.695C138 71.235 138.11 71.675 138.21 72.015C136.01 72.455 134.23 72.825 132.87 73.125C131.51 73.405 130.46 73.645 129.72 73.845C128.98 74.025 128.43 74.175 128.07 74.295C127.71 74.435 127.42 74.565 127.2 74.685ZM133.02 50.625L135.93 49.485C136.47 50.585 137.01 51.765 137.55 53.025C138.09 54.265 138.56 55.485 138.96 56.685C139.38 57.865 139.68 58.925 139.86 59.865L136.65 61.245C136.49 60.325 136.21 59.255 135.81 58.035C135.43 56.815 135 55.565 134.52 54.285C134.04 52.985 133.54 51.765 133.02 50.625ZM138.57 50.235H153.27V53.445H138.57V50.235ZM143.04 62.205V63.825H148.83V62.205H143.04ZM143.04 66.375V67.995H148.83V66.375H143.04ZM143.04 58.095V59.685H148.83V58.095H143.04ZM139.83 55.395H152.16V70.695H139.83V55.395ZM144.54 52.365L148.26 52.875C147.8 53.735 147.31 54.585 146.79 55.425C146.27 56.245 145.8 56.955 145.38 57.555L142.56 56.985C142.82 56.545 143.07 56.055 143.31 55.515C143.55 54.955 143.78 54.405 144 53.865C144.22 53.325 144.4 52.825 144.54 52.365ZM142.77 70.635L145.59 72.615C144.83 73.435 143.88 74.225 142.74 74.985C141.6 75.765 140.46 76.385 139.32 76.845C139.12 76.485 138.85 76.055 138.51 75.555C138.19 75.055 137.87 74.625 137.55 74.265C138.19 73.985 138.84 73.645 139.5 73.245C140.16 72.845 140.78 72.415 141.36 71.955C141.94 71.475 142.41 71.035 142.77 70.635ZM146.61 72.765L148.38 70.425C148.98 70.765 149.62 71.165 150.3 71.625C150.98 72.065 151.64 72.515 152.28 72.975C152.92 73.415 153.44 73.815 153.84 74.175L151.98 76.815C151.6 76.435 151.1 75.995 150.48 75.495C149.88 75.015 149.24 74.535 148.56 74.055C147.88 73.575 147.23 73.145 146.61 72.765Z" fill="#B65A0F"/>
<path d="M114.69 51.8251H118.47V72.4351C118.47 73.5151 118.33 74.3451 118.05 74.9251C117.77 75.5251 117.26 75.9751 116.52 76.2751C115.8 76.5751 114.88 76.7551 113.76 76.8151C112.64 76.8951 111.31 76.9351 109.77 76.9351C109.69 76.5751 109.57 76.1551 109.41 75.6751C109.25 75.2151 109.06 74.7551 108.84 74.2951C108.64 73.8351 108.44 73.4451 108.24 73.1251C108.98 73.1451 109.72 73.1651 110.46 73.1851C111.22 73.2051 111.9 73.2151 112.5 73.2151C113.1 73.2151 113.52 73.2151 113.76 73.2151C114.1 73.2151 114.34 73.1551 114.48 73.0351C114.62 72.9151 114.69 72.6951 114.69 72.3751V51.8251ZM97.56 57.8251H101.04V71.8051H97.56V57.8251ZM99.03 57.8251H110.34V69.4951H99.03V66.0451H106.8V61.2451H99.03V57.8251ZM94.77 50.8051H121.95V54.4651H94.77V50.8051Z" fill="#B65A0F"/>
<path d="M66.42 53.685H75.63V73.875H66.42V70.725H72.39V56.805H66.42V53.685ZM64.32 53.685H67.59V76.095H64.32V53.685ZM66.3 61.695H73.95V64.815H66.3V61.695ZM68.61 48.795L72.51 49.365C72.19 50.385 71.84 51.395 71.46 52.395C71.1 53.395 70.77 54.245 70.47 54.945L67.59 54.285C67.73 53.765 67.86 53.185 67.98 52.545C68.12 51.905 68.25 51.255 68.37 50.595C68.49 49.935 68.57 49.335 68.61 48.795ZM79.59 53.445H88.38V56.745H79.59V53.445ZM87.12 53.445H90.45C90.45 53.445 90.45 53.555 90.45 53.775C90.45 53.975 90.45 54.205 90.45 54.465C90.45 54.725 90.44 54.925 90.42 55.065C90.34 58.445 90.24 61.315 90.12 63.675C90.02 66.015 89.89 67.955 89.73 69.495C89.59 71.015 89.42 72.205 89.22 73.065C89.02 73.925 88.76 74.555 88.44 74.955C88.04 75.535 87.61 75.935 87.15 76.155C86.69 76.375 86.16 76.535 85.56 76.635C84.98 76.715 84.26 76.745 83.4 76.725C82.56 76.725 81.7 76.715 80.82 76.695C80.8 76.195 80.68 75.605 80.46 74.925C80.24 74.265 79.97 73.685 79.65 73.185C80.61 73.265 81.5 73.315 82.32 73.335C83.16 73.355 83.77 73.365 84.15 73.365C84.45 73.365 84.69 73.335 84.87 73.275C85.07 73.195 85.26 73.055 85.44 72.855C85.7 72.595 85.91 72.065 86.07 71.265C86.25 70.445 86.4 69.295 86.52 67.815C86.64 66.335 86.75 64.465 86.85 62.205C86.95 59.945 87.04 57.255 87.12 54.135V53.445ZM79.68 48.825L83.16 49.635C82.78 51.095 82.31 52.555 81.75 54.015C81.21 55.475 80.61 56.855 79.95 58.155C79.31 59.435 78.65 60.555 77.97 61.515C77.77 61.315 77.48 61.085 77.1 60.825C76.74 60.545 76.37 60.275 75.99 60.015C75.63 59.755 75.31 59.555 75.03 59.415C75.69 58.555 76.31 57.565 76.89 56.445C77.49 55.305 78.02 54.085 78.48 52.785C78.96 51.465 79.36 50.145 79.68 48.825ZM78.21 62.115L81.03 60.525C81.53 61.205 82.06 61.955 82.62 62.775C83.18 63.595 83.71 64.395 84.21 65.175C84.71 65.955 85.12 66.645 85.44 67.245L82.38 69.105C82.1 68.485 81.72 67.775 81.24 66.975C80.78 66.175 80.28 65.355 79.74 64.515C79.22 63.655 78.71 62.855 78.21 62.115Z" fill="#B65A0F"/>
<path d="M42.6 64.875H58.44V68.115H42.6V64.875ZM40.86 72.885H59.97V76.155H40.86V72.885ZM41.31 52.065H59.76V57.705H56.49V55.035H44.43V57.795H41.31V52.065ZM48.6 66.435H52.14V74.445H48.6V66.435ZM31.65 65.025C32.85 64.725 34.29 64.335 35.97 63.855C37.67 63.355 39.38 62.845 41.1 62.325L41.64 65.505C40.06 66.045 38.45 66.575 36.81 67.095C35.19 67.615 33.7 68.095 32.34 68.535L31.65 65.025ZM32.07 54.525H40.95V57.855H32.07V54.525ZM35.19 48.825H38.49V73.185C38.49 74.005 38.4 74.655 38.22 75.135C38.06 75.635 37.75 76.025 37.29 76.305C36.85 76.585 36.29 76.775 35.61 76.875C34.95 76.975 34.12 77.015 33.12 76.995C33.08 76.555 32.97 76.005 32.79 75.345C32.61 74.705 32.41 74.145 32.19 73.665C32.75 73.685 33.26 73.705 33.72 73.725C34.2 73.725 34.53 73.715 34.71 73.695C34.89 73.695 35.01 73.665 35.07 73.605C35.15 73.525 35.19 73.385 35.19 73.185V48.825ZM47.52 49.515L50.88 48.525C51.24 49.205 51.6 49.945 51.96 50.745C52.32 51.545 52.6 52.235 52.8 52.815L49.35 53.985C49.17 53.385 48.9 52.665 48.54 51.825C48.2 50.985 47.86 50.215 47.52 49.515ZM46.59 54.555H49.86C49.8 55.815 49.68 56.935 49.5 57.915C49.32 58.875 48.99 59.735 48.51 60.495C48.05 61.235 47.38 61.875 46.5 62.415C45.64 62.955 44.51 63.395 43.11 63.735C42.99 63.355 42.76 62.905 42.42 62.385C42.08 61.865 41.75 61.465 41.43 61.185C42.57 60.925 43.47 60.615 44.13 60.255C44.81 59.895 45.32 59.455 45.66 58.935C46.02 58.395 46.26 57.765 46.38 57.045C46.5 56.325 46.57 55.495 46.59 54.555ZM51.33 54.255H54.54V59.145C54.54 59.525 54.58 59.795 54.66 59.955C54.74 60.115 54.91 60.195 55.17 60.195C55.27 60.195 55.43 60.195 55.65 60.195C55.87 60.195 56.11 60.195 56.37 60.195C56.63 60.195 56.87 60.195 57.09 60.195C57.31 60.195 57.48 60.195 57.6 60.195C57.88 60.195 58.21 60.185 58.59 60.165C58.97 60.125 59.27 60.075 59.49 60.015C59.53 60.435 59.57 60.915 59.61 61.455C59.65 61.995 59.71 62.455 59.79 62.835C59.55 62.935 59.23 63.005 58.83 63.045C58.45 63.065 58.06 63.075 57.66 63.075C57.54 63.075 57.36 63.075 57.12 63.075C56.88 63.075 56.62 63.075 56.34 63.075C56.06 63.075 55.8 63.075 55.56 63.075C55.32 63.075 55.14 63.075 55.02 63.075C54.02 63.075 53.25 62.945 52.71 62.685C52.19 62.405 51.83 61.975 51.63 61.395C51.43 60.815 51.33 60.055 51.33 59.115V54.255Z" fill="#B65A0F"/>
<path d="M1.17 61.965H28.29V65.625H1.17V61.965ZM5.85 49.155L9.66 49.965C9.28 51.405 8.81 52.815 8.25 54.195C7.71 55.555 7.12 56.835 6.48 58.035C5.84 59.215 5.16 60.255 4.44 61.155C4.18 60.955 3.83 60.735 3.39 60.495C2.97 60.235 2.54 59.995 2.1 59.775C1.66 59.535 1.28 59.355 0.959998 59.235C1.7 58.455 2.38 57.525 3 56.445C3.62 55.365 4.17 54.205 4.65 52.965C5.15 51.705 5.55 50.435 5.85 49.155ZM6.72 53.565H25.71V57.225H4.92L6.72 53.565ZM16.59 62.715C17.49 65.555 18.96 67.895 21 69.735C23.04 71.575 25.78 72.855 29.22 73.575C28.94 73.835 28.64 74.165 28.32 74.565C28.02 74.965 27.73 75.375 27.45 75.795C27.19 76.235 26.97 76.635 26.79 76.995C24.31 76.355 22.2 75.425 20.46 74.205C18.72 72.985 17.26 71.485 16.08 69.705C14.92 67.925 13.95 65.855 13.17 63.495L16.59 62.715ZM12.69 48.795H16.47V58.365C16.47 59.765 16.38 61.185 16.2 62.625C16.04 64.065 15.7 65.475 15.18 66.855C14.66 68.235 13.9 69.555 12.9 70.815C11.9 72.055 10.58 73.205 8.94 74.265C7.32 75.305 5.31 76.195 2.91 76.935C2.77 76.635 2.56 76.285 2.28 75.885C2.02 75.485 1.74 75.085 1.44 74.685C1.14 74.305 0.859999 73.995 0.599998 73.755C2.76 73.135 4.57 72.385 6.03 71.505C7.49 70.625 8.66 69.665 9.54 68.625C10.44 67.585 11.11 66.495 11.55 65.355C12.01 64.195 12.31 63.025 12.45 61.845C12.61 60.665 12.69 59.495 12.69 58.335V48.795Z" fill="#B65A0F"/>
<path d="M143.13 9.37506H146.58V33.1051H143.13V9.37506ZM136.35 12.0451H153.09V14.8351H136.35V12.0451ZM135.45 31.6651H153.72V34.4851H135.45V31.6651ZM137.16 27.5251H152.58V30.2851H137.16V27.5251ZM150.96 7.06506L153.03 9.70506C151.95 9.92506 150.77 10.1151 149.49 10.2751C148.21 10.4151 146.89 10.5351 145.53 10.6351C144.17 10.7351 142.8 10.8151 141.42 10.8751C140.04 10.9151 138.72 10.9451 137.46 10.9651C137.42 10.5851 137.32 10.1351 137.16 9.61506C137 9.09506 136.84 8.65506 136.68 8.29506C137.92 8.25506 139.19 8.20506 140.49 8.14506C141.81 8.06506 143.1 7.97506 144.36 7.87506C145.62 7.77506 146.81 7.65506 147.93 7.51506C149.07 7.37506 150.08 7.22506 150.96 7.06506ZM140.46 22.1851V23.6851H149.34V22.1851H140.46ZM140.46 18.5551V20.0551H149.34V18.5551H140.46ZM137.34 16.0651H152.61V26.1751H137.34V16.0651ZM130.08 9.61506H133.56V34.9651H130.08V9.61506ZM125.76 15.2551H136.77V18.5851H125.76V15.2551ZM130.26 16.6051L132.36 17.5051C132.08 18.5851 131.74 19.7051 131.34 20.8651C130.94 22.0251 130.5 23.1751 130.02 24.3151C129.54 25.4351 129.03 26.4951 128.49 27.4951C127.95 28.4951 127.39 29.3651 126.81 30.1051C126.63 29.5851 126.37 29.0051 126.03 28.3651C125.71 27.7051 125.41 27.1451 125.13 26.6851C125.65 26.0851 126.16 25.3851 126.66 24.5851C127.18 23.7651 127.67 22.8951 128.13 21.9751C128.59 21.0551 129 20.1351 129.36 19.2151C129.72 18.2951 130.02 17.4251 130.26 16.6051ZM134.73 7.12506L137.16 9.88506C136.14 10.2651 135.02 10.6151 133.8 10.9351C132.58 11.2551 131.33 11.5351 130.05 11.7751C128.79 11.9951 127.58 12.1851 126.42 12.3451C126.34 11.9451 126.2 11.4851 126 10.9651C125.8 10.4251 125.6 9.96506 125.4 9.58506C126.5 9.40506 127.62 9.19506 128.76 8.95506C129.92 8.69506 131.01 8.40506 132.03 8.08506C133.07 7.76506 133.97 7.44506 134.73 7.12506ZM133.5 19.4251C133.68 19.5651 133.95 19.8251 134.31 20.2051C134.69 20.5651 135.09 20.9651 135.51 21.4051C135.95 21.8451 136.34 22.2551 136.68 22.6351C137.02 22.9951 137.27 23.2551 137.43 23.4151L135.36 26.2651C135.18 25.8851 134.94 25.4551 134.64 24.9751C134.36 24.4951 134.05 23.9951 133.71 23.4751C133.39 22.9551 133.07 22.4651 132.75 22.0051C132.43 21.5251 132.15 21.1351 131.91 20.8351L133.5 19.4251Z" fill="#B65A0F"/>
<path d="M94.47 18.645H122.25V22.575H94.47V18.645Z" fill="#B65A0F"/>
<path d="M71.88 8.14502H79.62V11.175H71.88V8.14502ZM71.91 15.135H79.74V18.135H71.91V15.135ZM71.88 22.245H80.01V25.275H71.88V22.245ZM78.33 8.14502H81.21C81.21 8.14502 81.21 8.25502 81.21 8.47502C81.21 8.67502 81.21 8.89502 81.21 9.13502C81.21 9.37502 81.2 9.56502 81.18 9.70502C81.18 13.025 81.17 15.925 81.15 18.405C81.13 20.865 81.1 22.975 81.06 24.735C81.04 26.495 81 27.955 80.94 29.115C80.88 30.275 80.8 31.185 80.7 31.845C80.6 32.505 80.47 32.975 80.31 33.255C80.05 33.755 79.77 34.105 79.47 34.305C79.19 34.505 78.85 34.645 78.45 34.725C78.07 34.825 77.65 34.885 77.19 34.905C76.73 34.925 76.24 34.925 75.72 34.905C75.7 34.445 75.62 33.915 75.48 33.315C75.34 32.715 75.15 32.195 74.91 31.755C75.31 31.775 75.67 31.795 75.99 31.815C76.33 31.815 76.61 31.815 76.83 31.815C77.03 31.835 77.19 31.795 77.31 31.695C77.43 31.595 77.55 31.425 77.67 31.185C77.79 30.925 77.89 30.375 77.97 29.535C78.05 28.675 78.11 27.405 78.15 25.725C78.19 24.045 78.22 21.835 78.24 19.095C78.28 16.355 78.31 12.985 78.33 8.98502V8.14502ZM73.8 9.73502H76.68V17.925C76.68 19.165 76.62 20.535 76.5 22.035C76.4 23.535 76.18 25.065 75.84 26.625C75.5 28.185 75.01 29.695 74.37 31.155C73.73 32.595 72.89 33.895 71.85 35.055C71.73 34.855 71.54 34.605 71.28 34.305C71.02 34.025 70.75 33.745 70.47 33.465C70.19 33.205 69.96 33.015 69.78 32.895C70.7 31.815 71.43 30.655 71.97 29.415C72.51 28.155 72.91 26.855 73.17 25.515C73.43 24.175 73.6 22.855 73.68 21.555C73.76 20.255 73.8 19.035 73.8 17.895V9.73502ZM82.44 8.14502H88.41V11.055H85.38V34.995H82.44V8.14502ZM87.87 8.14502H88.41L88.83 8.02502L91.05 9.28502C90.83 10.285 90.58 11.365 90.3 12.525C90.04 13.685 89.77 14.825 89.49 15.945C89.23 17.045 88.98 18.025 88.74 18.885C89.5 20.205 89.99 21.455 90.21 22.635C90.43 23.795 90.55 24.885 90.57 25.905C90.57 26.945 90.47 27.815 90.27 28.515C90.09 29.195 89.78 29.705 89.34 30.045C89.16 30.225 88.93 30.365 88.65 30.465C88.39 30.565 88.11 30.645 87.81 30.705C87.37 30.765 86.85 30.785 86.25 30.765C86.25 30.345 86.2 29.855 86.1 29.295C86 28.715 85.84 28.205 85.62 27.765C85.8 27.785 85.97 27.795 86.13 27.795C86.29 27.795 86.44 27.795 86.58 27.795C86.84 27.775 87.06 27.675 87.24 27.495C87.38 27.335 87.48 27.075 87.54 26.715C87.6 26.335 87.63 25.895 87.63 25.395C87.63 24.575 87.53 23.635 87.33 22.575C87.15 21.495 86.71 20.365 86.01 19.185C86.19 18.445 86.37 17.615 86.55 16.695C86.73 15.755 86.9 14.815 87.06 13.875C87.24 12.915 87.4 12.035 87.54 11.235C87.68 10.415 87.79 9.75502 87.87 9.25502V8.14502ZM65.55 9.46502H71.1V27.135H65.55V23.835H68.37V12.735H65.55V9.46502ZM64.05 9.46502H66.72V29.955H64.05V9.46502Z" fill="#B65A0F"/>
<path d="M32.67 19.6351H59.25V22.7851H32.67V19.6351ZM46.11 25.0351H57.33V28.1551H46.11V25.0351ZM44.43 21.2551H48.09V32.3551H44.43V21.2551ZM39.81 26.0251C40.37 27.4851 41.15 28.5851 42.15 29.3251C43.15 30.0451 44.35 30.5251 45.75 30.7651C47.17 31.0051 48.75 31.1351 50.49 31.1551C50.83 31.1551 51.3 31.1551 51.9 31.1551C52.52 31.1551 53.21 31.1551 53.97 31.1551C54.73 31.1551 55.49 31.1551 56.25 31.1551C57.03 31.1351 57.76 31.1251 58.44 31.1251C59.12 31.1051 59.68 31.0851 60.12 31.0651C59.94 31.3451 59.77 31.6851 59.61 32.0851C59.45 32.4851 59.3 32.8951 59.16 33.3151C59.04 33.7551 58.95 34.1551 58.89 34.5151H57.09H50.31C48.57 34.5151 47 34.4151 45.6 34.2151C44.22 34.0151 42.98 33.6451 41.88 33.1051C40.78 32.5851 39.81 31.8351 38.97 30.8551C38.15 29.8551 37.43 28.5751 36.81 27.0151L39.81 26.0251ZM37.2 23.4151L40.77 23.9251C40.29 26.4051 39.5 28.5851 38.4 30.4651C37.32 32.3251 35.96 33.8451 34.32 35.0251C34.14 34.8051 33.88 34.5351 33.54 34.2151C33.22 33.8951 32.88 33.5751 32.52 33.2551C32.18 32.9351 31.87 32.6851 31.59 32.5051C33.13 31.5651 34.36 30.3151 35.28 28.7551C36.2 27.1951 36.84 25.4151 37.2 23.4151ZM38.94 14.2351V15.7351H52.71V14.2351H38.94ZM38.94 10.3951V11.8651H52.71V10.3951H38.94ZM35.46 7.81506H56.37V18.2851H35.46V7.81506Z" fill="#B65A0F"/>
<path d="M13.26 6.91504L16.8 7.72504C16.38 9.28504 15.87 10.835 15.27 12.375C14.67 13.895 14.01 15.325 13.29 16.665C12.59 17.985 11.84 19.145 11.04 20.145C10.82 19.925 10.53 19.665 10.17 19.365C9.83 19.065 9.47 18.775 9.09 18.495C8.73 18.195 8.41 17.955 8.13 17.775C8.91 16.915 9.62 15.905 10.26 14.745C10.9 13.585 11.47 12.335 11.97 10.995C12.49 9.65504 12.92 8.29504 13.26 6.91504ZM12.42 20.235L15.93 20.955C15.65 22.235 15.29 23.495 14.85 24.735C14.43 25.955 13.96 27.115 13.44 28.215C12.92 29.295 12.38 30.245 11.82 31.065C11.6 30.865 11.3 30.645 10.92 30.405C10.54 30.145 10.15 29.905 9.75 29.685C9.37 29.445 9.04 29.255 8.76 29.115C9.62 28.055 10.36 26.725 10.98 25.125C11.6 23.525 12.08 21.895 12.42 20.235ZM13.92 12.195H26.25V15.525H12.6L13.92 12.195ZM17.37 13.665H20.94V30.975C20.94 31.815 20.85 32.505 20.67 33.045C20.49 33.585 20.12 34.005 19.56 34.305C19.04 34.585 18.41 34.775 17.67 34.875C16.95 34.975 16.1 35.025 15.12 35.025C15.06 34.485 14.9 33.865 14.64 33.165C14.4 32.465 14.15 31.875 13.89 31.395C14.53 31.415 15.13 31.425 15.69 31.425C16.27 31.425 16.66 31.425 16.86 31.425C17.04 31.425 17.17 31.395 17.25 31.335C17.33 31.255 17.37 31.115 17.37 30.915V13.665ZM22.02 21.015L25.23 19.935C25.77 20.975 26.26 22.085 26.7 23.265C27.14 24.425 27.52 25.575 27.84 26.715C28.16 27.835 28.39 28.845 28.53 29.745L25.08 30.945C24.96 30.065 24.75 29.045 24.45 27.885C24.17 26.725 23.82 25.555 23.4 24.375C22.98 23.175 22.52 22.055 22.02 21.015ZM25.26 12.195H25.74L26.31 12.075L28.86 12.555C28.68 13.775 28.47 15.035 28.23 16.335C27.99 17.615 27.76 18.705 27.54 19.605L24.48 19.035C24.56 18.495 24.65 17.865 24.75 17.145C24.85 16.425 24.95 15.675 25.05 14.895C25.15 14.095 25.22 13.345 25.26 12.645V12.195ZM6.84 6.91504L10.23 7.99504C9.59 9.67504 8.83 11.375 7.95 13.095C7.07 14.795 6.12 16.415 5.1 17.955C4.08 19.475 3.02 20.805 1.92 21.945C1.82 21.645 1.65 21.265 1.41 20.805C1.19 20.325 0.95 19.845 0.69 19.365C0.43 18.885 0.2 18.495 0 18.195C0.9 17.275 1.77 16.215 2.61 15.015C3.47 13.815 4.26 12.525 4.98 11.145C5.72 9.76504 6.34 8.35504 6.84 6.91504ZM3.96 15.225L7.38 11.805V11.835V34.935H3.96V15.225Z" fill="#B65A0F"/>
<ellipse cx="14.2785" cy="8.45316" rx="14.2785" ry="8.45316" transform="matrix(-0.77313 -0.634248 -0.634248 0.77313 232.771 32.554)" fill="#F3BD13"/>
<ellipse cx="178.306" cy="30.0332" rx="14.2785" ry="8.45316" transform="rotate(-39.3642 178.306 30.0332)" fill="#F3BD13"/>
<g filter="url(#filter0_d_1_896)">
<path d="M204.849 15.1608C206.561 12.0063 210.382 10.6586 213.694 12.0412L218.269 13.9511C221.581 15.3337 223.31 18.9981 222.271 22.4333L218.406 35.2096C217.206 39.177 212.839 41.2371 209.014 39.6404L201.937 36.6862C198.112 35.0895 196.506 30.536 198.483 26.8928L204.849 15.1608Z" fill="#F3BD13"/>
</g>
<g filter="url(#filter1_d_1_896)">
<path d="M189.827 15.1608C188.115 12.0063 184.294 10.6586 180.982 12.0412L176.407 13.9511C173.095 15.3337 171.366 18.9981 172.406 22.4333L176.27 35.2096C177.47 39.177 181.837 41.2371 185.662 39.6404L192.739 36.6862C196.564 35.0895 198.17 30.536 196.193 26.8928L189.827 15.1608Z" fill="#F3BD13"/>
</g>
<g filter="url(#filter2_d_1_896)">
<path d="M185.974 12.6747C185.574 8.56211 188.806 5 192.938 5H201.77C205.902 5 209.134 8.56211 208.733 12.6747L206.598 34.597C206.249 38.1814 203.236 40.9152 199.635 40.9152H195.073C191.472 40.9152 188.459 38.1814 188.109 34.597L185.974 12.6747Z" fill="#F3BD13"/>
</g>
<path d="M184.281 20.7222C184.281 19.6974 185.111 18.8666 186.136 18.8666H190.304C191.329 18.8666 192.159 19.6974 192.159 20.7222V22.9681C192.159 25.1438 190.396 26.9075 188.22 26.9075V26.9075C186.044 26.9075 184.281 25.1438 184.281 22.9681V20.7222Z" fill="#FFEDB2"/>
<path d="M202.559 20.7222C202.559 19.6974 203.39 18.8666 204.415 18.8666H208.582C209.607 18.8666 210.438 19.6974 210.438 20.7222V22.9681C210.438 25.1438 208.674 26.9075 206.499 26.9075V26.9075C204.323 26.9075 202.559 25.1438 202.559 22.9681V20.7222Z" fill="#FFEDB2"/>
<defs>
<filter id="filter0_d_1_896" x="192.97" y="6.83581" width="34.2664" height="38.0116" filterUnits="userSpaceOnUse" color-interpolation-filters="sRGB">
<feFlood flood-opacity="0" result="BackgroundImageFix"/>
<feColorMatrix in="SourceAlpha" type="matrix" values="0 0 0 0 0 0 0 0 0 0 0 0 0 0 0 0 0 0 127 0" result="hardAlpha"/>
<feOffset/>
<feGaussianBlur stdDeviation="2.33216"/>
<feComposite in2="hardAlpha" operator="out"/>
<feColorMatrix type="matrix" values="0 0 0 0 1 0 0 0 0 1 0 0 0 0 1 0 0 0 0.1 0"/>
<feBlend mode="normal" in2="BackgroundImageFix" result="effect1_dropShadow_1_896"/>
<feBlend mode="normal" in="SourceGraphic" in2="effect1_dropShadow_1_896" result="shape"/>
</filter>
<filter id="filter1_d_1_896" x="167.44" y="6.83581" width="34.2665" height="38.0116" filterUnits="userSpaceOnUse" color-interpolation-filters="sRGB">
<feFlood flood-opacity="0" result="BackgroundImageFix"/>
<feColorMatrix in="SourceAlpha" type="matrix" values="0 0 0 0 0 0 0 0 0 0 0 0 0 0 0 0 0 0 127 0" result="hardAlpha"/>
<feOffset/>
<feGaussianBlur stdDeviation="2.33216"/>
<feComposite in2="hardAlpha" operator="out"/>
<feColorMatrix type="matrix" values="0 0 0 0 1 0 0 0 0 1 0 0 0 0 1 0 0 0 0.1 0"/>
<feBlend mode="normal" in2="BackgroundImageFix" result="effect1_dropShadow_1_896"/>
<feBlend mode="normal" in="SourceGraphic" in2="effect1_dropShadow_1_896" result="shape"/>
</filter>
<filter id="filter2_d_1_896" x="181.276" y="0.335684" width="32.1552" height="45.2439" filterUnits="userSpaceOnUse" color-interpolation-filters="sRGB">
<feFlood flood-opacity="0" result="BackgroundImageFix"/>
<feColorMatrix in="SourceAlpha" type="matrix" values="0 0 0 0 0 0 0 0 0 0 0 0 0 0 0 0 0 0 127 0" result="hardAlpha"/>
<feOffset/>
<feGaussianBlur stdDeviation="2.33216"/>
<feComposite in2="hardAlpha" operator="out"/>
<feColorMatrix type="matrix" values="0 0 0 0 1 0 0 0 0 1 0 0 0 0 1 0 0 0 0.1 0"/>
<feBlend mode="normal" in2="BackgroundImageFix" result="effect1_dropShadow_1_896"/>
<feBlend mode="normal" in="SourceGraphic" in2="effect1_dropShadow_1_896" result="shape"/>
</filter>
</defs>
</svg>
